<svg width="21" height="21" viewBox="0 0 21 21" fill="none"
  xmlns="http://www.w3.org/2000/svg">
  <path d="M20.7769 10.7363C20.7769 10.045 20.7156 9.38875 20.6106 8.75H10.7231V12.6963H16.3844C16.1306 13.9913 15.3869 15.085 14.2844 15.8288V18.4538H17.6619C19.6394 16.625 20.7769 13.93 20.7769 10.7363Z" fill="#4285F4"/>
  <path d="M10.7232 21C13.5582 21 15.9294 20.055 17.6619 18.4538L14.2844 15.8288C13.3394 16.4588 12.1407 16.8438 10.7232 16.8438C7.98443 16.8438 5.66568 14.9975 4.83443 12.5038H1.35193V15.2075C3.07568 18.6375 6.61943 21 10.7232 21Z" fill="#34A853"/>
  <path d="M4.83439 12.5037C4.61564 11.8737 4.50189 11.2 4.50189 10.5C4.50189 9.79999 4.62439 9.12625 4.83439 8.49625V5.7925H1.35189C0.634394 7.21 0.223145 8.80249 0.223145 10.5C0.223145 12.1975 0.634394 13.79 1.35189 15.2075L4.83439 12.5037Z" fill="#FBBC05"/>
  <path d="M10.7232 4.15625C12.2719 4.15625 13.6544 4.69 14.7482 5.73125L17.7407 2.73875C15.9294 1.04125 13.5582 0 10.7232 0C6.61943 0 3.07568 2.3625 1.35193 5.7925L4.83443 8.49625C5.66568 6.0025 7.98443 4.15625 10.7232 4.15625Z" fill="#EA4335"/>
</svg>
